<svg xmlns="http://www.w3.org/2000/svg" height="1024" preserveAspectRatio="none" style="display: block;" version="1.1" viewBox="0 0 2048 2048" width="1024">
<path d="M 0 0 L 331.368 0 L 1715.54 0 L 2048 0 L 2048 328.208 L 2048 1714.65 L 2048 2048 L 1712.76 2048 L 331.457 2048 L 0 2048 L 0 1714.67 L 0 330.417 L 0 0 z" fill="rgb(22,23,26)" transform="translate(0,0)"></path>
<path d="M 1712.76 2048 C 1722.6 2045.73 1746.77 2044.35 1760.11 2041.84 C 1813.46 2031.7 1863.81 2009.54 1907.32 1977.03 C 1973.37 1927.54 2019.85 1856.33 2038.57 1775.95 C 2043.55 1754.6 2045.08 1736.21 2048 1714.65 L 2048 2048 L 1712.76 2048 z" fill="rgb(231,230,229)" transform="translate(0,0)"></path>
<path d="M 0 1714.67 C 3.29521 1740.18 4.62741 1759.56 11.1587 1785.04 C 29.9064 1858.18 75.98 1928.33 135.71 1974.31 C 178.59 2007.18 228.458 2029.75 281.456 2040.27 C 296.058 2043.2 319.698 2045.12 331.457 2048 L 0 2048 L 0 1714.67 z" fill="rgb(231,230,229)" transform="translate(0,0)"></path>
<path d="M 1715.54 0 L 2048 0 L 2048 328.208 C 2045.33 313.96 2044.47 299.397 2041.55 284.47 C 2031.81 234.332 2011.27 186.915 1981.36 145.514 C 1932.71 77.6853 1861.2 29.7079 1779.99 10.4094 C 1755.95 4.64756 1739.05 3.81318 1715.54 0 z" fill="rgb(231,230,229)" transform="translate(0,0)"></path>
<path d="M 0 0 L 331.368 0 C 312.065 3.23738 292.963 5.1396 273.709 9.21821 C 189.656 27.0237 115.381 76.6968 65.5055 146.843 C 35.8288 188.185 15.5735 235.529 6.16506 285.543 C 3.45669 300.26 2.60124 317.06 0 330.417 L 0 0 z" fill="rgb(231,230,229)" transform="translate(0,0)"></path>
<path d="M 1197.24 668.127 C 1197.7 668.173 1198.99 668.791 1199.48 669.002 C 1205.62 689.572 1211.71 717.025 1217.11 738.377 L 1253.16 883.42 L 1027.11 947.797 C 1022.99 933.497 1011.86 887.577 1010.52 874.195 C 1043.81 864.548 1082.62 855.794 1114.6 845.175 C 1065.74 816.522 998.259 814.94 945.452 834.156 C 917.714 844.249 887.108 865.693 866.659 886.846 C 827.915 927.24 806.732 981.324 807.736 1037.29 C 810.076 1156.74 910.554 1247.32 1028.72 1244.03 C 1085.85 1242.58 1139.99 1218.19 1178.93 1176.36 C 1211.45 1141.51 1233.77 1090.36 1238.68 1042.95 C 1240.83 1022.19 1239.1 996.039 1238.37 975.178 C 1240.09 972.93 1242.33 972.917 1245.66 971.842 C 1265.6 967.345 1286.41 960.825 1306.75 956.055 C 1323.02 1022.13 1315.58 1091.82 1285.72 1152.96 C 1251.62 1223.73 1190.7 1277.98 1116.47 1303.69 C 1043.39 1328.43 963.499 1323.25 894.241 1289.26 C 824.89 1255.39 772.049 1195.08 747.58 1121.89 C 727.463 1062.56 726.935 1002.45 747.155 943.022 C 803.833 776.425 988.847 698.875 1146.86 777.169 C 1141.22 750.202 1131.04 714.954 1124.11 687.799 C 1147.28 680.849 1173.69 674.318 1197.24 668.127 z" fill="rgb(239,121,87)" transform="translate(0,0)"></path>
<path d="M 1317.09 624.879 C 1351.8 624.148 1389.09 624.881 1423.98 624.863 L 1621.66 624.954 L 1622 1423.43 L 1397.5 1423.74 L 1317.22 1423.97 C 1316.87 1399.51 1316.7 1368.12 1317.62 1344.03 L 1542.04 1344.06 L 1541.97 703.98 L 1317.06 704.156 L 1317.09 624.879 z" fill="rgb(239,121,87)" transform="translate(0,0)"></path>
<path d="M 425.884 624.957 L 729.572 624.851 L 729.636 704.012 L 505.111 704.094 L 505.073 1344.1 L 585.5 1344.08 L 729.818 1343.86 L 729.887 1423.47 L 425.325 1424.09 L 425.884 624.957 z" fill="rgb(239,121,87)" transform="translate(0,0)"></path>
<metadata><recraft-signature>{"signed_by": "recraft", "signature_b64": "OTJcsVs76806kWQWlIkRNJnb9176t8/JroyWOvHmYDViZcelb8fCrwS+TpNaZ1Oyr0CZLXIdjESlUN5+mD9gCA==", "signing_algo": "Ed25519", "generation_timestamp": 1783378480, "identifier": "48aa920f-2afd-465b-90d6-eed184876c21"}</recraft-signature></metadata></svg>